<svg xmlns="http://www.w3.org/2000/svg" width="35.716" height="33.141" viewBox="0 0 35.716 33.141">
  <g id="Group_54120" data-name="Group 54120" transform="translate(0.5 0.499)">
    <path id="Path_28322" data-name="Path 28322" d="M32.075,850.7a.547.547,0,0,1-.322-.092.273.273,0,0,1-.131-.232V847.62h.906v2.426h1.281V847.62h.906v2.756a.274.274,0,0,1-.131.232.549.549,0,0,1-.322.092Zm-5.08,0v-.654h1.786v-.577H27.448a.538.538,0,0,1-.318-.095.28.28,0,0,1-.135-.236v-1.2a.275.275,0,0,1,.135-.228.539.539,0,0,1,.318-.1h2.231v.654H27.9v.542h1.333a.521.521,0,0,1,.314.095.283.283,0,0,1,.131.236v1.231a.283.283,0,0,1-.131.236.521.521,0,0,1-.314.095Zm-3.677,0v-2.426h-.88v-.647H25.1v.647h-.88V850.7Zm-3,0-.3-.724H18.612l-.3.724h-.924l1.246-3.066H20l1.246,3.066Zm-1.438-1.385h.863l-.427-1.034ZM12.835,850.7v-3.073h2.579a.527.527,0,0,1,.309.095.28.28,0,0,1,.135.235v2.419a.272.272,0,0,1-.135.232.539.539,0,0,1-.309.092Zm.889-.647H14.97V849.5H13.724Zm0-1.216H14.97v-.549H13.724ZM9.934,850.7v-3.073h.9V850.7Zm-2.666,0-.3-.724H5.559l-.305.724H4.331l1.246-3.066H6.945L8.191,850.7Zm-1.438-1.385h.863l-.427-1.034ZM0,850.7v-.675l1.533-1.744H0v-.654H2.736v.569l-1.577,1.849H2.736v.654Z" transform="translate(0 -823.98)" fill="#fff" stroke="rgba(0,0,0,0)" stroke-width="1"/>
    <path id="Path_29285" data-name="Path 29285" d="M-200.052-377.025a10.135,10.135,0,0,1-2.781,4.66l.4.675a11.386,11.386,0,0,0,2.875-5.065v5.334a.431.431,0,0,1-.477.488c-.353,0-.716-.021-1.11-.052l.156.7h1.2a.844.844,0,0,0,.955-.944v-5.791h1.256v-.674h-1.256v-1.972h-.726v1.972h-2.823v.674Zm-6.372-2.273v6.289h3.5V-379.3Zm2.771,5.625H-205.7v-1.266h2.044Zm-2.044-1.889v-1.194h2.044v1.194Zm0-1.827v-1.245h2.044v1.245Zm1.972,4.722-.55.343a13.648,13.648,0,0,1,1.152,1.858l.571-.4A14.713,14.713,0,0,0-203.726-372.666Zm-1.93.083a11.355,11.355,0,0,1-1.225,1.951l.623.322a10.291,10.291,0,0,0,1.214-1.982Zm1.131,11.991v3.062h.633v-3.757a6.577,6.577,0,0,0,.768-1.256l-.56-.27a5.925,5.925,0,0,1-1.889,2.221l.218.716C-205.065-360.1-204.785-360.343-204.525-360.592Zm4.795-1.1-2.024.446q-.062-.623-.062-1.4h-.643a13.719,13.719,0,0,0,.083,1.536l-1.1.249.093.612,1.1-.239a4.932,4.932,0,0,0,.176.747c.073.218.156.426.239.623a5.832,5.832,0,0,1-1.546.685l.374.581a6.051,6.051,0,0,0,1.484-.685,2.116,2.116,0,0,0,.27.353,1.311,1.311,0,0,0,.955.529A.681.681,0,0,0-199.8-358l.135.508c.291.01.581.021.872.021.519,0,.789-.291.789-.861v-8.157H-201.9v3.3h3.155v4.618c0,.291-.114.436-.322.436s-.4-.01-.633-.031a6.775,6.775,0,0,0,.322-.706l-.519-.332q-.249.841-.467.872a.983.983,0,0,1-.643-.467l-.062-.093a6.1,6.1,0,0,0,1.339-1.557l-.54-.28a5.227,5.227,0,0,1-1.09,1.245,4.531,4.531,0,0,1-.218-.664,3.235,3.235,0,0,1-.093-.477l2.034-.446Zm-1.1-1.09-.457.176a6.128,6.128,0,0,1,.519.944l.467-.208A4.667,4.667,0,0,0-200.831-362.782Zm-5.013-1.775h2.366v.768h-2.366Zm2.366-.581h-2.366v-.747h2.366Zm2.294.581h2.439v.768h-2.439Zm2.439-.581h-2.439v-.727h2.439Zm-4.006-1.349h-3.829v9.091h.737v-5.781h3.093Z" transform="translate(232.288 379.673)" fill="#fff"/>
    <path id="Path_29282" data-name="Path 29282" d="M14.615,22.275l8.909-8.436v8.436ZM0,22.275V17.957L18.964,0h4.561V4.318L4.561,22.275ZM0,0H8.909L0,8.436Z" transform="translate(0 0.001)" fill="#fff" stroke="rgba(0,0,0,0)" stroke-width="1"/>
    <path id="Path_29286" data-name="Path 29286" d="M4.778-53.111H5.2v1.832H4.778V-51.9h-.6v.616H3.751v-1.832h.432v.826h.6Zm2.708.394H6.534v.335h.524V-52H6.534v.331h.952v.386H6.111v-1.832H7.486ZM9.67-51.279l-.143-.432H8.848l-.147.432H8.257l.6-1.828h.658l.6,1.828Zm-.482-1.442-.21.616h.415Zm2.88-.39h.44l-.545,1.832H11.3l-.549-1.832h.44l.44,1.434Zm2.947,0-.687.993v.838h-.432v-.838l-.687-.993H13.8l.314.449.31-.449Zm3.064,1.832h-.432v-1.832h.432Zm2.7-1.832v1.832H20.4l-.822-1.241v1.241h-.428v-1.832h.616l.578.88v-.88Zm2.159,0a.218.218,0,0,1,.151.057.181.181,0,0,1,.063.14v1.442a.175.175,0,0,1-.063.138.223.223,0,0,1-.151.054H21.7v-1.832Zm-.218.394h-.591v1.052h.591Zm2.645,1.438H24.315a.228.228,0,0,1-.155-.054.175.175,0,0,1-.063-.138v-1.643h.436v1.446h.616v-1.446h.436v1.643a.175.175,0,0,1-.063.138A.228.228,0,0,1,25.368-51.279Zm2.289,0H26.579v-.39h.859v-.344H26.8a.226.226,0,0,1-.153-.057.179.179,0,0,1-.065-.14v-.717a.175.175,0,0,1,.065-.136.226.226,0,0,1,.153-.057H27.87v.39h-.855v.323h.641a.218.218,0,0,1,.151.057.181.181,0,0,1,.063.14v.734a.181.181,0,0,1-.063.14A.218.218,0,0,1,27.656-51.279Zm2.356-1.832v.386h-.423v1.446h-.432v-1.446h-.423v-.386Zm2.079,1.832-.419-.629h-.31v.629H30.93v-1.832h1.245a.223.223,0,0,1,.155.057.177.177,0,0,1,.063.136v.813a.181.181,0,0,1-.063.14.223.223,0,0,1-.155.057l.419.629ZM31.362-52.3h.6v-.423h-.6Zm2.515,1.019h-.432v-1.832h.432Zm2.381-1.438h-.952v.335h.524V-52h-.524v.331h.952v.386H34.883v-1.832h1.375Zm2,1.438H37.176v-.39h.859v-.344h-.641a.226.226,0,0,1-.153-.057.179.179,0,0,1-.065-.14v-.717a.175.175,0,0,1,.065-.136.226.226,0,0,1,.153-.057h1.073v.39h-.855v.323h.641a.218.218,0,0,1,.151.057.181.181,0,0,1,.063.14v.734a.181.181,0,0,1-.063.14A.218.218,0,0,1,38.253-51.279Z" transform="translate(-3.751 81.214)" fill="#fff"/>
    <path id="Path_29287" data-name="Path 29287" d="M0,976.776v-.835H34.716v.835Z" transform="translate(0 -944.634)" fill="#fff" stroke="rgba(0,0,0,0)" stroke-width="1"/>
  </g>
</svg>
